#!OML:ASF H:\Terrain\Patient Classification 1\Animal2\Wednesday\Animal2.ASF
:FULLY-SPECIFIED
:DEGREES
3334
root -1.6192 17.3795 7.66931 209.689 -185.809 -180.38
lowerback 16.6532 1.06619 1.9815
upperback -5.17343 1.89242 -0.0465126
thorax -15.224 0.672488 -1.73362
lowerneck 16.3059 14.0036 16.7112
upperneck -24.049 19.1487 -22.5618
head -5.75257 10.5128 -11.5093
rclavicle -3.55825e-014 -3.97569e-015
rhumerus -41.7767 -11.3408 -68.3567
rradius 34.2207
rwrist 10.2092
rhand -8.20416 18.1763
rfingers 7.12502
rthumb 17.7124 -11.037
lclavicle -3.55825e-014 -3.97569e-015
lhumerus -52.7703 4.60601 66.2336
lradius 45.7985
lwrist 18.4631
lhand -21.247 18.1288
lfingers 7.12502
lthumb 5.13581 48.0465
rfemur -51.0024 -1.64304 11.4406
rtibia 42.3263
rfoot -20.2837 -2.32349
rtoes 12.7321
lfemur -53.8328 -0.960826 -8.59335
ltibia 40.4631
lfoot -16.7309 -3.462
ltoes -28.3567
3335
root -1.60171 17.3878 7.69721 209.437 -185.625 -180.223
lowerback 16.404 1.1206 1.69292
upperback -5.11789 1.88351 -0.117983
thorax -15.0089 0.695996 -1.63974
lowerneck 16.2737 13.8605 16.6163
upperneck -24.2241 18.8977 -22.6236
head -5.85481 10.399 -11.5507
rclavicle 1.19271e-014 -5.56597e-015
rhumerus -41.412 -11.2169 -68.528
rradius 34.5083
rwrist 9.98892
rhand -8.39172 18.2734
rfingers 7.12502
rthumb 17.5319 -10.956
lclavicle 1.19271e-014 -5.56597e-015
lhumerus -52.6027 4.49998 66.3997
lradius 46.388
lwrist 18.9639
lhand -21.7257 18.0753
lfingers 7.12502
lthumb 4.67367 48.0038
rfemur -50.5651 -1.66993 11.1856
rtibia 42.2131
rfoot -20.3046 -2.11402
rtoes 13.5366
lfemur -53.3572 -1.04792 -8.90657
ltibia 40.4106
lfoot -16.8123 -3.28937
ltoes -28.932
3336
root -1.58699 17.3926 7.7235 209.149 -185.571 -180.245
lowerback 16.2546 1.17298 1.57215
upperback -5.1177 1.92558 -0.1094
thorax -14.9187 0.729155 -1.56912
lowerneck 15.9995 13.777 16.443
upperneck -24.1519 18.7298 -22.4592
head -5.86041 10.3016 -11.4467
rclavicle -8.94531e-015 -7.15625e-015
rhumerus -41.2117 -10.9674 -68.7025
rradius 35.0163
rwrist 9.77481
rhand -8.48186 18.1989
rfingers 7.12502
rthumb 17.4451 -11.0383
lclavicle -8.94531e-015 -7.15625e-015
lhumerus -52.5119 4.3756 66.6388
lradius 47.0759
lwrist 19.2502
lhand -22.3198 17.8153
lfingers 7.12502
lthumb 4.09994 47.7556
rfemur -50.1095 -1.56654 11.1214
rtibia 42.0962
rfoot -20.361 -1.95504
rtoes 14.0933
lfemur -52.882 -1.08865 -8.97239
ltibia 40.363
lfoot -16.9442 -3.10745
ltoes -30.0271
3337
root -1.57705 17.3982 7.7461 208.978 -185.617 -180.219
lowerback 16.1738 1.13843 1.46013
upperback -5.25633 1.85508 -0.109188
thorax -15.0405 0.705017 -1.48567
lowerneck 15.8797 13.7207 16.2452
upperneck -24.1689 18.6293 -22.1881
head -5.92332 10.2275 -11.3294
rclavicle -1.03368e-014 -1.59028e-014
rhumerus -41.2176 -10.4337 -68.9903
rradius 35.8529
rwrist 9.51556
rhand -8.58535 18.0054
rfingers 7.12502
rthumb 17.3455 -11.2406
lclavicle -1.03368e-014 -1.59028e-014
lhumerus -52.5775 4.36585 66.699
lradius 47.6324
lwrist 19.47
lhand -22.546 17.6686
lfingers 7.12502
lthumb 3.8815 47.613
rfemur -49.7439 -1.44658 11.0042
rtibia 41.9557
rfoot -20.4786 -1.78643
rtoes 15.3105
lfemur -52.6086 -1.19785 -8.99227
ltibia 40.3294
lfoot -16.9602 -3.46997
ltoes -27.6212
3338
root -1.56899 17.404 7.77079 208.844 -185.636 -180.1
lowerback 15.963 1.10782 1.34074
upperback -5.35252 1.77228 -0.201668
thorax -15.0278 0.6727 -1.49465
lowerneck 15.8086 13.5618 16.1547
upperneck -24.2653 18.3923 -22.0435
head -6.01809 10.0938 -11.2893
rclavicle -9.93923e-015 -6.36111e-015
rhumerus -41.0783 -10.3971 -69.1975
rradius 36.4188
rwrist 9.59042
rhand -8.77227 18.0929
rfingers 7.12502
rthumb 17.1656 -11.1688
lclavicle -9.93923e-015 -6.36111e-015
lhumerus -52.4459 4.30123 66.6579
lradius 48.1699
lwrist 19.93
lhand -22.6368 17.8846
lfingers 7.12502
lthumb 3.79383 47.8306
rfemur -49.3734 -1.47719 10.8601
rtibia 41.7871
rfoot -20.5097 -1.68741
rtoes 15.9546
lfemur -52.3735 -1.2528 -9.17683
ltibia 40.3334
lfoot -16.9637 -3.82381
ltoes -25.4798
3339
root -1.55699 17.4092 7.79831 208.527 -185.738 -180.162
lowerback 15.8723 1.09025 1.45611
upperback -5.3963 1.76756 -0.242685
thorax -15.0194 0.657022 -1.60319
lowerneck 15.6874 13.3334 16.3156
upperneck -24.3129 18.0532 -22.2458
head -6.0368 9.93376 -11.3874
rclavicle 8.05078e-015 3.77691e-015
rhumerus -40.8746 -10.5039 -69.3113
rradius 36.8064
rwrist 9.70237
rhand -9.03635 18.2178
rfingers 7.12502
rthumb 16.9115 -11.0659
lclavicle 8.05078e-015 3.77691e-015
lhumerus -52.2614 4.09817 66.7281
lradius 48.8346
lwrist 20.2995
lhand -23.0732 17.9494
lfingers 7.12502
lthumb 3.37239 47.9025
rfemur -48.7864 -1.5453 10.9678
rtibia 41.5997
rfoot -20.5326 -1.51726
rtoes 16.491
lfemur -51.9432 -1.24001 -9.21432
ltibia 40.3745
lfoot -17.0762 -3.83459
ltoes -26.4146
3340
root -1.54234 17.4192 7.82549 208.129 -185.855 -180.341
lowerback 15.8933 1.06298 1.64924
upperback -5.47628 1.78095 -0.202243
thorax -15.1239 0.645128 -1.67293
lowerneck 15.5546 13.1014 16.6522
upperneck -24.1716 17.7149 -22.694
head -5.94562 9.79318 -11.5677
rclavicle -3.3694e-014 -2.98177e-015
rhumerus -40.8128 -10.1197 -69.5183
rradius 37.5307
rwrist 9.32273
rhand -9.23839 18.3412
rfingers 7.12502
rthumb 16.717 -10.959
lclavicle -3.3694e-014 -2.98177e-015
lhumerus -52.1424 3.96084 66.8467
lradius 49.4156
lwrist 20.5462
lhand -23.5301 17.8392
lfingers 7.12502
lthumb 2.93118 47.7988
rfemur -48.107 -1.55151 11.1777
rtibia 41.4
rfoot -20.6127 -1.27431
rtoes 17.378
lfemur -51.4595 -1.30452 -9.06461
ltibia 40.4345
lfoot -17.1597 -3.80055
ltoes -26.7325
3341
root -1.53139 17.4257 7.85411 207.871 -185.903 -180.419
lowerback 15.7386 1.0499 1.71534
upperback -5.61106 1.77564 -0.215321
thorax -15.1874 0.634029 -1.72182
lowerneck 14.9994 13.0451 16.2116
upperneck -23.7092 17.5788 -22.0872
head -5.85683 9.67556 -11.206
rclavicle -1.88845e-014 -6.16232e-015
rhumerus -40.9542 -9.64078 -69.8209
rradius 38.6538
rwrist 8.86351
rhand -9.34676 18.3882
rfingers 7.12502
rthumb 16.6126 -10.9208
lclavicle -1.88845e-014 -6.16232e-015
lhumerus -52.0974 3.72674 66.9524
lradius 50.023
lwrist 21.0035
lhand -23.8739 17.7609
lfingers 7.12502
lthumb 2.59918 47.7248
rfemur -47.5907 -1.55263 11.2907
rtibia 41.2483
rfoot -20.6668 -1.64045
rtoes 16.0498
lfemur -51.1034 -1.34384 -9.04672
ltibia 40.4935
lfoot -17.2736 -3.7225
ltoes -27.0896
3342
root -1.52338 17.4315 7.88532 207.699 -185.964 -180.424
lowerback 15.5311 1.00203 1.64112
upperback -5.79908 1.6918 -0.230232
thorax -15.289 0.599617 -1.67075
lowerneck 14.02 13.1656 16.0772
upperneck -22.731 17.7047 -21.6635
head -5.42685 9.68261 -10.8315
rclavicle -6.65929e-015 6.95746e-015
rhumerus -41.0354 -9.29161 -70.0895
rradius 39.6318
rwrist 8.77063
rhand -9.50047 18.2568
rfingers 7.12502
rthumb 16.4646 -11.0646
lclavicle -6.65929e-015 6.95746e-015
lhumerus -52.2819 3.51949 66.9848
lradius 50.9218
lwrist 21.4947
lhand -24.0069 17.523
lfingers 7.12502
lthumb 2.47066 47.4884
rfemur -47.2272 -1.56573 11.3176
rtibia 41.1877
rfoot -20.7412 -1.97473
rtoes 15.1817
lfemur -50.8034 -1.39856 -9.09233
ltibia 40.5105
lfoot -17.3885 -3.85162
ltoes -26.7079
3343
root -1.516 17.4328 7.91443 207.499 -186.048 -180.447
lowerback 15.3254 0.929283 1.56885
upperback -5.93468 1.57691 -0.222375
thorax -15.33 0.553733 -1.58557
lowerneck 15.101 12.7445 16.3159
upperneck -23.9577 17.1687 -22.1164
head -6.02135 9.46168 -11.2923
rclavicle 2.66371e-014 -9.14409e-015
rhumerus -40.8453 -8.98879 -70.3879
rradius 40.3653
rwrist 8.51205
rhand -9.55083 18.0207
rfingers 7.12502
rthumb 16.4161 -11.3047
lclavicle 2.66371e-014 -9.14409e-015
lhumerus -52.3575 3.44615 66.9631
lradius 51.8757
lwrist 21.8224
lhand -24.0624 16.9541
lfingers 7.12502
lthumb 2.41707 46.9201
rfemur -46.8997 -1.58027 11.3542
rtibia 41.2
rfoot -20.8935 -1.88603
rtoes 15.6107
lfemur -50.48 -1.4463 -9.08439
ltibia 40.5013
lfoot -17.6123 -4.18889
ltoes -25.3346
3344
root -1.51373 17.4229 7.94087 207.308 -186.027 -180.461
lowerback 15.0627 0.932218 1.54235
upperback -6.0055 1.55454 -0.343283
thorax -15.2484 0.539397 -1.69532
lowerneck 15.0437 12.5634 16.6352
upperneck -24.1929 16.9231 -22.3724
head -6.0707 9.33926 -11.4534
rclavicle -1.31695e-014 -1.25234e-014
rhumerus -40.684 -8.67108 -70.8826
rradius 41.2273
rwrist 7.96856
rhand -9.41856 17.7345
rfingers 7.12502
rthumb 16.5435 -11.5803
lclavicle -1.31695e-014 -1.25234e-014
lhumerus -52.1178 3.11327 66.9293
lradius 52.6643
lwrist 22.1925
lhand -24.4076 15.6263
lfingers 7.12502
lthumb 2.08371 45.5959
rfemur -46.6142 -1.41826 11.3336
rtibia 41.2113
rfoot -20.9903 -2.00001
rtoes 15.6334
lfemur -50.1597 -1.36224 -9.13378
ltibia 40.4951
lfoot -17.929 -4.05475
ltoes -27.1988
3345
root -1.51029 17.4228 7.96456 207.104 -186.069 -180.513
lowerback 14.792 0.916347 1.66884
upperback -6.04622 1.5325 -0.510019
thorax -15.1206 0.508061 -1.94243
lowerneck 14.1387 12.4248 16.742
upperneck -23.7037 16.7124 -22.0227
head -5.83571 9.16581 -11.2121
rclavicle 9.44227e-015 3.97569e-016
rhumerus -40.5028 -8.42382 -71.4162
rradius 41.8956
rwrist 7.83419
rhand -10.0019 18.1749
rfingers 7.12502
rthumb 15.9819 -11.1858
lclavicle 9.44227e-015 3.97569e-016
lhumerus -51.8191 2.76218 66.8712
lradius 53.4216
lwrist 22.4551
lhand -25.0025 15.0424
lfingers 7.12502
lthumb 1.50918 45.0168
rfemur -46.2837 -1.31963 11.393
rtibia 41.1896
rfoot -21.0622 -2.11768
rtoes 15.8626
lfemur -49.8514 -1.31119 -9.14874
ltibia 40.4689
lfoot -17.8968 -3.8583
ltoes -29.1162
3346
root -1.49514 17.439 7.98342 206.776 -186.411 -180.742
lowerback 14.5658 0.761811 2.13853
upperback -6.01961 1.42018 -0.483528
thorax -14.9432 0.416124 -2.14102
lowerneck 13.5829 12.3098 16.6492
upperneck -23.5569 16.472 -21.9273
head -5.76181 9.02801 -11.1058
rclavicle 6.31141e-015 -1.14301e-014
rhumerus -40.1653 -8.35255 -71.687
rradius 42.42
rwrist 8.1746
rhand -11.0028 19.29
rfingers 7.12502
rthumb 15.0178 -10.1454
lclavicle 6.31141e-015 -1.14301e-014
lhumerus -51.5637 2.80846 66.913
lradius 54.1786
lwrist 22.5325
lhand -25.5442 16.0742
lfingers 7.12502
lthumb 0.985962 46.0517
rfemur -45.7136 -1.7045 11.8248
rtibia 41.0984
rfoot -21.1801 -1.88779
rtoes 15.8979
lfemur -49.4848 -1.43839 -8.93275
ltibia 40.4384
lfoot -17.7377 -4.19305
ltoes -27.6852
